<svg id="Logo" xmlns="http://www.w3.org/2000/svg" xmlns:xlink="http://www.w3.org/1999/xlink" width="960" height="1080" viewBox="0 0 960 1080">
  <defs>
    <linearGradient id="linear-gradient" y1="1" x2="1" gradientUnits="objectBoundingBox">
      <stop offset="0" stop-color="#5c6ccd"/>
      <stop offset="1" stop-color="#5753b5"/>
    </linearGradient>
    <clipPath id="clip-path">
      <rect id="Rectangle_179" data-name="Rectangle 179" width="960" height="1080" fill="url(#linear-gradient)"/>
    </clipPath>
    <linearGradient id="linear-gradient-2" x1="0.5" x2="0.5" y2="1" gradientUnits="objectBoundingBox">
      <stop offset="0" stop-color="#a7a7ff"/>
      <stop offset="1" stop-color="#fff" stop-opacity="0"/>
    </linearGradient>
    <linearGradient id="linear-gradient-4" x1="0.5" x2="0.5" y2="1" gradientUnits="objectBoundingBox">
      <stop offset="0" stop-color="#54d8ff"/>
      <stop offset="1" stop-color="#fff" stop-opacity="0"/>
    </linearGradient>
  </defs>
  <g id="Group_4" data-name="Group 4" clip-path="url(#clip-path)">
    <g id="Products_Sold_Graph" data-name="Products Sold Graph" transform="translate(-657.902 319.65)" opacity="0.201">
      <path id="Filled.Graph" d="M330,822.827V577.385s370.2,160.989,666,171.1c319.847-9.8,375.232-78.7,624.37-171.1,212.9-77.019,425.215-98.158,629-92.715s380.415,88.643,621.134,97.169c424.656-34.351,641.315-208.025,670.006-280.562V914.109L330,914.382Z" transform="translate(-330 -298.414)" opacity="0.7" fill="url(#linear-gradient-2)"/>
      <path id="Line.Graph" d="M313,524.853S680.815,689.679,971.635,693.228s402.525-85.057,625.275-168.156,434.508-97.281,629.465-94.488,384.481,89.875,624.023,94.5,627.073-150.528,670.166-279.841" transform="translate(-310.054 -245.24)" fill="none" stroke="#a3a0fb" stroke-width="2"/>
      <g id="Mar.Ellipse" transform="translate(1272.744 267.186)" fill="#fff" stroke="#a4a1fb" stroke-width="2">
        <circle cx="11.888" cy="11.888" r="11.888" stroke="none"/>
        <circle cx="11.888" cy="11.888" r="10.888" fill="none"/>
      </g>
      <g id="Feb.Ellipse" transform="translate(847.357 419.878)" fill="#fff" stroke="#a4a1fb" stroke-width="2">
        <circle cx="11.888" cy="11.888" r="11.888" stroke="none"/>
        <circle cx="11.888" cy="11.888" r="10.888" fill="none"/>
      </g>
    </g>
    <g id="Products_Sold_Graph-2" data-name="Products Sold Graph" transform="translate(-810.302 581.775)" opacity="0.201">
      <path id="Filled.Graph-2" data-name="Filled.Graph" d="M330,822.827V577.385s370.2,160.989,666,171.1c319.847-9.8,375.232-78.7,624.37-171.1,212.9-77.019,425.215-98.158,629-92.715s380.415,88.643,621.134,97.169c424.656-34.351,641.315-208.025,670.006-280.562V914.109L330,914.382Z" transform="translate(-330 -298.414)" opacity="0.7" fill="url(#linear-gradient-2)"/>
      <path id="Line.Graph-2" data-name="Line.Graph" d="M313,524.853S680.815,689.679,971.635,693.228s402.525-85.057,625.275-168.156,434.508-97.281,629.465-94.488,384.481,89.875,624.023,94.5,627.073-150.528,670.166-279.841" transform="translate(-310.054 -245.24)" fill="none" stroke="#a3a0fb" stroke-width="2"/>
      <g id="Mar.Ellipse-2" data-name="Mar.Ellipse" transform="translate(1272.744 267.186)" fill="#fff" stroke="#a4a1fb" stroke-width="2">
        <circle cx="11.888" cy="11.888" r="11.888" stroke="none"/>
        <circle cx="11.888" cy="11.888" r="10.888" fill="none"/>
      </g>
    </g>
    <g id="Total_Views_Graph" data-name="Total Views Graph" transform="translate(-845.159 344.74)" opacity="0.201">
      <path id="Filled.Graph-3" data-name="Filled.Graph" d="M330,729.221v-374.8S691.328,727.05,988.143,741.074c331.172-3.158,333.886-193.446,624.9-297.617,243.629-81.794,429.53,141.324,633.316,146.767s344.427-152.916,622.453-163.918c360.214,16.568,649.26,228.141,671.69,239.517V820.5L330,820.775Z" transform="translate(-328.01 -354.422)" opacity="0.7" fill="url(#linear-gradient-4)"/>
      <path id="Line.Graph-3" data-name="Line.Graph" d="M312.953,279.164s372.574,379.5,663.755,383.044,390.754-223.6,624.551-300.177S2037.874,508.1,2233.072,510.9,2615.159,343.624,2855,348.246s514.052,133.267,665.648,234.746" transform="translate(-312.953 -275.989)" fill="none" stroke="#54d8ff" stroke-width="2"/>
      <g id="May.Ellipse" transform="translate(2520.361 57.949)" fill="#fff" stroke="#55d8fe" stroke-width="2">
        <circle cx="11.888" cy="11.888" r="11.888" stroke="none"/>
        <circle cx="11.888" cy="11.888" r="10.888" fill="none"/>
      </g>
      <g id="Mar.Ellipse-3" data-name="Mar.Ellipse" transform="translate(1369.369 57.019)" fill="#fff" stroke="#55d8fe" stroke-width="2">
        <circle cx="11.888" cy="11.888" r="11.888" stroke="none"/>
        <circle cx="11.888" cy="11.888" r="10.888" fill="none"/>
      </g>
    </g>
    <g id="Total_Views_Graph-2" data-name="Total Views Graph" transform="translate(-1208.428 468.869)" opacity="0.201">
      <path id="Filled.Graph-4" data-name="Filled.Graph" d="M330,729.221v-374.8S691.328,727.05,988.143,741.074c331.172-3.158,333.886-193.446,624.9-297.617,243.629-81.794,429.53,141.324,633.316,146.767s344.427-152.916,622.453-163.918c360.214,16.568,649.26,228.141,671.69,239.517V820.5L330,820.775Z" transform="translate(-329.21 -354.422)" opacity="0.7" fill="url(#linear-gradient-4)"/>
      <path id="Line.Graph-4" data-name="Line.Graph" d="M312.953,279.164s372.574,379.5,663.755,383.044,390.754-223.6,624.551-300.177S2037.874,508.1,2233.072,510.9,2615.159,343.624,2855,348.246s514.052,133.267,665.648,234.746" transform="translate(-312.953 -275.989)" fill="none" stroke="#54d8ff" stroke-width="2"/>
      <g id="Apr.Ellipse" transform="translate(2024.412 205.118)" fill="#fff" stroke="#55d8fe" stroke-width="2">
        <circle cx="11.888" cy="11.888" r="11.888" stroke="none"/>
        <circle cx="11.888" cy="11.888" r="10.888" fill="none"/>
      </g>
      <g id="Mar.Ellipse-4" data-name="Mar.Ellipse" transform="translate(1270.564 71.755)" fill="#fff" stroke="#55d8fe" stroke-width="2">
        <circle cx="11.888" cy="11.888" r="11.888" stroke="none"/>
        <circle cx="11.888" cy="11.888" r="10.888" fill="none"/>
      </g>
    </g>
  </g>
  <g id="Site_Logo" data-name="Site Logo" transform="translate(96 464)">
    <g id="Yoda_Logo" data-name="Yoda Logo" transform="translate(-1049 -438)">
      <path id="Path_470" data-name="Path 470" d="M1159.588,614.976l-51.276-.536L1097,545h72.178Z" transform="translate(3.71 8.27)" fill="#fff" stroke="#4d4d4d" stroke-width="1"/>
      <line id="Line_71" data-name="Line 71" x1="1.833" y2="69.708" transform="translate(1137.659 553.269)" fill="#fff" stroke="#4d4d4d" stroke-width="1"/>
      <path id="Path_471" data-name="Path 471" d="M1158.644,623.813l-.649-76.616,10.778-1.2,51.709,98.033-61.839-20.219" transform="translate(8.424 8.347)" fill="#fff" stroke="#4d4d4d" stroke-width="1"/>
      <path id="Path_472" data-name="Path 472" d="M1150.95,588.054l6.518,34.415,30.164-33.4" transform="translate(7.879 11.597)" fill="#fff" stroke="#4d4d4d" stroke-width="1"/>
      <path id="Path_473" data-name="Path 473" d="M1189.883,517.169l-16.159-43.091L1098.314,473,1080,516.091l14,34.473h80.8Z" transform="translate(2.396 2.705)" fill="#fff" stroke="#4d4d4d" stroke-width="1"/>
      <path id="Path_474" data-name="Path 474" d="M1166.933,546.379l20.928,46.033-38.782-1.077-1.1-46.476" transform="translate(7.649 8.258)" fill="#fff" stroke="#4d4d4d" stroke-width="1"/>
      <path id="Path_475" data-name="Path 475" d="M1184.628,514,1148,531.236l2.155,19.391,19.391-2.155Z" transform="translate(7.651 5.874)" fill="#fff" stroke="#4d4d4d" stroke-width="1"/>
      <path id="Path_476" data-name="Path 476" d="M1071.875,580.55l27.067,62.482L1137.724,545" transform="translate(1.768 8.27)" fill="#fff" stroke="#4d4d4d" stroke-width="1"/>
      <path id="Path_477" data-name="Path 477" d="M1091.806,550.924,1070,580.093h44.169" transform="translate(1.623 8.727)" fill="#fff" stroke="#4d4d4d" stroke-width="1"/>
      <path id="Path_478" data-name="Path 478" d="M1091.888,542.308,1088,548.44l24.777,32.319,17.236-35.55-16.54.193" transform="translate(3.014 8.061)" fill="#fff" stroke="#4d4d4d" stroke-width="1"/>
      <path id="Path_479" data-name="Path 479" d="M1079.5,512.5l14,34.473,20.469,2.155,2.155-19.391Z" transform="translate(2.357 5.758)" fill="#fff" stroke="#4d4d4d" stroke-width="1"/>
      <line id="Line_72" data-name="Line 72" x1="24.401" y2="0.153" transform="translate(1133.028 553.117)" fill="#fff" stroke="#4d4d4d" stroke-width="1"/>
      <path id="Path_480" data-name="Path 480" d="M1147.159,520,1131,541.546l21.546,95.878Z" transform="translate(6.337 6.337)" fill="#986e4b" stroke="#4d4d4d" stroke-width="1"/>
      <path id="Path_481" data-name="Path 481" d="M1097.386,473,1092,502.919l22.623,20.713h39.859l21.546-18.412-3.232-31.07Z" transform="translate(3.323 2.705)" fill="rgba(179,179,179,0.63)"/>
      <path id="Path_482" data-name="Path 482" d="M1097.386,473,1092,501.009l22.623,19.391h39.859l21.546-17.237-3.232-29.087Z" transform="translate(3.323 2.705)" fill="#acc473" stroke="#4d4d4d" stroke-width="1"/>
      <path id="Path_483" data-name="Path 483" d="M1216.61,463,1174.6,495.319l-8.314-22.208Z" transform="translate(9.064 1.932)" fill="#acc473" stroke="#4d4d4d" stroke-width="1"/>
      <path id="Path_484" data-name="Path 484" d="M1049,468l42.014,28.009,10.132-23.577Z" transform="translate(0 2.319)" fill="#acc473" stroke="#4d4d4d" stroke-width="1"/>
      <path id="Path_485" data-name="Path 485" d="M1097,475.7l17.237-37.7h40.937l17.236,38.782Z" transform="translate(3.71 0)" fill="#acc473" stroke="#4d4d4d" stroke-width="1"/>
      <path id="Path_486" data-name="Path 486" d="M1113.348,530.892l4.057,2.271-1.077,11.85-4.562.118Z" transform="translate(4.851 7.179)" fill="#4d4d4d" stroke="#4d4d4d" stroke-width="1"/>
      <path id="Path_487" data-name="Path 487" d="M1148.454,531.214,1144,533.138l1.077,10.773h4.788Z" transform="translate(7.342 7.204)" fill="#4d4d4d" stroke="#4d4d4d" stroke-width="1"/>
    </g>
    <g id="Code_Jedi_name" data-name="Code Jedi name" transform="translate(-1041 -418.311)">
      <text id="CODE_JEDI" data-name="CODE JEDI" transform="translate(1221 576.311)" fill="#fff" stroke="#666" stroke-width="0.25" font-size="123.183" font-family="YuGothic-Regular, Yu Gothic"><tspan x="0" y="0">CODE </tspan><tspan y="0" fill="#acc473">JEDI</tspan></text>
    </g>
  </g>
</svg>
