<svg xmlns="http://www.w3.org/2000/svg" xmlns:xlink="http://www.w3.org/1999/xlink" width="960" height="1080" viewBox="0 0 960 1080">
  <defs>
    <linearGradient id="linear-gradient" y1="1" x2="1" gradientUnits="objectBoundingBox">
      <stop offset="0" stop-color="#5c6ccd"/>
      <stop offset="1" stop-color="#5753b5"/>
    </linearGradient>
    <clipPath id="clip-path">
      <rect id="Rectangle_179" data-name="Rectangle 179" width="960" height="1080" fill="url(#linear-gradient)"/>
    </clipPath>
    <linearGradient id="linear-gradient-2" x1="0.5" x2="0.5" y2="1" gradientUnits="objectBoundingBox">
      <stop offset="0" stop-color="#a7a7ff"/>
      <stop offset="1" stop-color="#fff" stop-opacity="0"/>
    </linearGradient>
    <linearGradient id="linear-gradient-4" x1="0.5" x2="0.5" y2="1" gradientUnits="objectBoundingBox">
      <stop offset="0" stop-color="#54d8ff"/>
      <stop offset="1" stop-color="#fff" stop-opacity="0"/>
    </linearGradient>
  </defs>
  <g id="Group_4" data-name="Group 4" clip-path="url(#clip-path)">
    <g id="Products_Sold_Graph" data-name="Products Sold Graph" transform="translate(-657.902 319.65)" opacity="0.201">
      <path id="Filled.Graph" d="M330,822.827V577.385s370.2,160.989,666,171.1c319.847-9.8,375.232-78.7,624.37-171.1,212.9-77.019,425.215-98.158,629-92.715s380.415,88.643,621.134,97.169c424.656-34.351,641.315-208.025,670.006-280.562V914.109L330,914.382Z" transform="translate(-330 -298.414)" opacity="0.7" fill="url(#linear-gradient-2)"/>
      <path id="Line.Graph" d="M313,524.853S680.815,689.679,971.635,693.228s402.525-85.057,625.275-168.156,434.508-97.281,629.465-94.488,384.481,89.875,624.023,94.5,627.073-150.528,670.166-279.841" transform="translate(-310.054 -245.24)" fill="none" stroke="#a3a0fb" stroke-width="2"/>
      <g id="Mar.Ellipse" transform="translate(1272.744 267.186)" fill="#fff" stroke="#a4a1fb" stroke-width="2">
        <circle cx="11.888" cy="11.888" r="11.888" stroke="none"/>
        <circle cx="11.888" cy="11.888" r="10.888" fill="none"/>
      </g>
      <g id="Feb.Ellipse" transform="translate(847.357 419.878)" fill="#fff" stroke="#a4a1fb" stroke-width="2">
        <circle cx="11.888" cy="11.888" r="11.888" stroke="none"/>
        <circle cx="11.888" cy="11.888" r="10.888" fill="none"/>
      </g>
    </g>
    <g id="Products_Sold_Graph-2" data-name="Products Sold Graph" transform="translate(-810.302 581.775)" opacity="0.201">
      <path id="Filled.Graph-2" data-name="Filled.Graph" d="M330,822.827V577.385s370.2,160.989,666,171.1c319.847-9.8,375.232-78.7,624.37-171.1,212.9-77.019,425.215-98.158,629-92.715s380.415,88.643,621.134,97.169c424.656-34.351,641.315-208.025,670.006-280.562V914.109L330,914.382Z" transform="translate(-330 -298.414)" opacity="0.7" fill="url(#linear-gradient-2)"/>
      <path id="Line.Graph-2" data-name="Line.Graph" d="M313,524.853S680.815,689.679,971.635,693.228s402.525-85.057,625.275-168.156,434.508-97.281,629.465-94.488,384.481,89.875,624.023,94.5,627.073-150.528,670.166-279.841" transform="translate(-310.054 -245.24)" fill="none" stroke="#a3a0fb" stroke-width="2"/>
      <g id="Mar.Ellipse-2" data-name="Mar.Ellipse" transform="translate(1272.744 267.186)" fill="#fff" stroke="#a4a1fb" stroke-width="2">
        <circle cx="11.888" cy="11.888" r="11.888" stroke="none"/>
        <circle cx="11.888" cy="11.888" r="10.888" fill="none"/>
      </g>
    </g>
    <g id="Total_Views_Graph" data-name="Total Views Graph" transform="translate(-845.159 344.74)" opacity="0.201">
      <path id="Filled.Graph-3" data-name="Filled.Graph" d="M330,729.221v-374.8S691.328,727.05,988.143,741.074c331.172-3.158,333.886-193.446,624.9-297.617,243.629-81.794,429.53,141.324,633.316,146.767s344.427-152.916,622.453-163.918c360.214,16.568,649.26,228.141,671.69,239.517V820.5L330,820.775Z" transform="translate(-328.01 -354.422)" opacity="0.7" fill="url(#linear-gradient-4)"/>
      <path id="Line.Graph-3" data-name="Line.Graph" d="M312.953,279.164s372.574,379.5,663.755,383.044,390.754-223.6,624.551-300.177S2037.874,508.1,2233.072,510.9,2615.159,343.624,2855,348.246s514.052,133.267,665.648,234.746" transform="translate(-312.953 -275.989)" fill="none" stroke="#54d8ff" stroke-width="2"/>
      <g id="May.Ellipse" transform="translate(2520.361 57.949)" fill="#fff" stroke="#55d8fe" stroke-width="2">
        <circle cx="11.888" cy="11.888" r="11.888" stroke="none"/>
        <circle cx="11.888" cy="11.888" r="10.888" fill="none"/>
      </g>
      <g id="Mar.Ellipse-3" data-name="Mar.Ellipse" transform="translate(1369.369 57.019)" fill="#fff" stroke="#55d8fe" stroke-width="2">
        <circle cx="11.888" cy="11.888" r="11.888" stroke="none"/>
        <circle cx="11.888" cy="11.888" r="10.888" fill="none"/>
      </g>
    </g>
    <g id="Total_Views_Graph-2" data-name="Total Views Graph" transform="translate(-1208.428 468.869)" opacity="0.201">
      <path id="Filled.Graph-4" data-name="Filled.Graph" d="M330,729.221v-374.8S691.328,727.05,988.143,741.074c331.172-3.158,333.886-193.446,624.9-297.617,243.629-81.794,429.53,141.324,633.316,146.767s344.427-152.916,622.453-163.918c360.214,16.568,649.26,228.141,671.69,239.517V820.5L330,820.775Z" transform="translate(-329.21 -354.422)" opacity="0.7" fill="url(#linear-gradient-4)"/>
      <path id="Line.Graph-4" data-name="Line.Graph" d="M312.953,279.164s372.574,379.5,663.755,383.044,390.754-223.6,624.551-300.177S2037.874,508.1,2233.072,510.9,2615.159,343.624,2855,348.246s514.052,133.267,665.648,234.746" transform="translate(-312.953 -275.989)" fill="none" stroke="#54d8ff" stroke-width="2"/>
      <g id="Apr.Ellipse" transform="translate(2024.412 205.118)" fill="#fff" stroke="#55d8fe" stroke-width="2">
        <circle cx="11.888" cy="11.888" r="11.888" stroke="none"/>
        <circle cx="11.888" cy="11.888" r="10.888" fill="none"/>
      </g>
      <g id="Mar.Ellipse-4" data-name="Mar.Ellipse" transform="translate(1270.564 71.755)" fill="#fff" stroke="#55d8fe" stroke-width="2">
        <circle cx="11.888" cy="11.888" r="11.888" stroke="none"/>
        <circle cx="11.888" cy="11.888" r="10.888" fill="none"/>
      </g>
    </g>
  </g>
</svg>
