<svg xmlns="http://www.w3.org/2000/svg" width="100%" height="100%" viewBox="0 0 35.516 40.474">
  <g id="delete" transform="translate(-1143 -814)">
    <g id="delete_remove_trash_trash_bin_trash_can_icon-1320073117929397588_0" data-name="delete+remove+trash+trash+bin+trash+can+icon-1320073117929397588_0" transform="translate(1143 814)">
      <g id="Group_714" data-name="Group 714" transform="translate(3.541 15.178)">
        <path id="Path_495" data-name="Path 495" d="M28.262,40.3H11.87a5.981,5.981,0,0,1-5.97-5.97V16.012A.956.956,0,0,1,6.912,15a.956.956,0,0,1,1.012,1.012V34.326a3.951,3.951,0,0,0,3.946,3.946H28.262a3.951,3.951,0,0,0,3.946-3.946V16.012a1.012,1.012,0,0,1,2.024,0V34.326A6.047,6.047,0,0,1,28.262,40.3Z" transform="translate(-5.9 -15)" />
      </g>
      <g id="Group_715" data-name="Group 715" transform="translate(0)">
        <path id="Path_496" data-name="Path 496" d="M33.666,4.958h-7.69a5.952,5.952,0,0,0-11.737,0H6.549A4.1,4.1,0,0,0,2.4,9.107a4.019,4.019,0,0,0,4.149,4.047H33.767a4.1,4.1,0,1,0-.1-8.2ZM20.107,2.024a3.8,3.8,0,0,1,3.744,2.934H16.262A4.007,4.007,0,0,1,20.107,2.024ZM33.666,11.13H6.549a2.125,2.125,0,1,1,0-4.25H33.767a2.137,2.137,0,0,1,2.125,2.125A2.226,2.226,0,0,1,33.666,11.13Z" transform="translate(-2.4)" />
      </g>
      <g id="Group_716" data-name="Group 716" transform="translate(9.612 16.594)">
        <path id="Path_497" data-name="Path 497" d="M12.912,35.321A.956.956,0,0,1,11.9,34.31v-16.9a1.012,1.012,0,1,1,2.024,0v16.9A1.088,1.088,0,0,1,12.912,35.321Z" transform="translate(-11.9 -16.4)" />
      </g>
      <g id="Group_717" data-name="Group 717" transform="translate(23.778 16.594)">
        <path id="Path_498" data-name="Path 498" d="M26.912,35.321A.956.956,0,0,1,25.9,34.31v-16.9a1.012,1.012,0,0,1,2.024,0v16.9A1.088,1.088,0,0,1,26.912,35.321Z" transform="translate(-25.9 -16.4)" />
      </g>
      <g id="Group_718" data-name="Group 718" transform="translate(16.695 16.594)">
        <path id="Path_499" data-name="Path 499" d="M19.912,35.321A.956.956,0,0,1,18.9,34.31v-16.9a1.012,1.012,0,0,1,2.024,0v16.9A1.088,1.088,0,0,1,19.912,35.321Z" transform="translate(-18.9 -16.4)" />
      </g>
    </g>
  </g>
</svg>
