<svg xmlns="http://www.w3.org/2000/svg" width="9" height="15" viewBox="0 0 9 15">
  <g id="dots" data-name="dots" transform="translate(-313 -705)">
    <path id="Options" d="M0,13.5A1.5,1.5,0,1,1,1.5,15,1.5,1.5,0,0,1,0,13.5Zm0-6A1.5,1.5,0,1,1,1.5,9,1.5,1.5,0,0,1,0,7.5Zm0-6A1.5,1.5,0,1,1,1.5,3,1.5,1.5,0,0,1,0,1.5Z" transform="translate(313 705)"/>
    <path id="Options-2" data-name="Options" d="M0,13.5A1.5,1.5,0,1,1,1.5,15,1.5,1.5,0,0,1,0,13.5Zm0-6A1.5,1.5,0,1,1,1.5,9,1.5,1.5,0,0,1,0,7.5Zm0-6A1.5,1.5,0,1,1,1.5,3,1.5,1.5,0,0,1,0,1.5Z" transform="translate(319 705)"/>
  </g>
</svg>
