<svg xmlns="http://www.w3.org/2000/svg" width="22.1" height="22.25" viewBox="0 0 22.1 22.25">
  <g id="icon_edit" data-name="icon edit" transform="translate(0.503 0.65)">
    <path class="icon" id="pencil-alt" d="M20.539,5.927l-1.9,1.9a.5.5,0,0,1-.7,0L13.365,3.253a.5.5,0,0,1,0-.7l1.9-1.9a1.982,1.982,0,0,1,2.8,0l2.476,2.476A1.975,1.975,0,0,1,20.539,5.927ZM11.733,4.184.913,15,.039,20.011a.99.99,0,0,0,1.146,1.146l5.007-.878L17.012,9.459a.5.5,0,0,0,0-.7L12.438,4.184a.5.5,0,0,0-.7,0Zm-6.6,9.894a.575.575,0,0,1,0-.816l6.346-6.346a.577.577,0,0,1,.816.816L5.952,14.078a.575.575,0,0,1-.816,0ZM3.649,17.543H5.627v1.5L2.969,19.5,1.687,18.223l.466-2.658h1.5Z" transform="translate(-0.023 -0.075)" fill="none" stroke="#fff" stroke-width="1"/>
  </g>
</svg>
