<svg id="Solution_Component" data-name="Solution Component" xmlns="http://www.w3.org/2000/svg" width="20.32" height="27.492" viewBox="0 0 20.32 27.492">
  <path id="Path_556" data-name="Path 556" d="M76.9,0H63.067a1.688,1.688,0,0,0-1.686,1.686v24.12a1.688,1.688,0,0,0,1.686,1.686H80.015A1.687,1.687,0,0,0,81.7,25.806V5.213Zm.4,2.523,2.1,2.285H77.3Zm2.984,23.283a.271.271,0,0,1-.271.27H63.067a.271.271,0,0,1-.27-.27V1.686a.27.27,0,0,1,.27-.269H75.885v4.1a.708.708,0,0,0,.709.707h3.692ZM65.294,7.53H77.316a.53.53,0,0,1,0,1.061H65.294a.53.53,0,0,1,0-1.061Zm12.552,4.095a.531.531,0,0,1-.53.53H65.294a.53.53,0,0,1,0-1.061H77.316A.531.531,0,0,1,77.847,11.624Zm0,3.448a.53.53,0,0,1-.53.53H65.294a.53.53,0,0,1,0-1.061H77.316A.53.53,0,0,1,77.847,15.072Zm0,3.506a.53.53,0,0,1-.53.53H65.294a.53.53,0,0,1,0-1.061H77.316A.53.53,0,0,1,77.847,18.578Z" transform="translate(-61.381)" fill="#fff"/>
</svg>
