<svg xmlns="http://www.w3.org/2000/svg" viewBox="0 0 27.954 27.954">
  <g id="TextIcon" transform="translate(2 4)">
    <g id="Rounded" transform="translate(-2 -4)">
      <g id="Editor" transform="translate(0 0)">
        <g id="_-Round-_-Editor-_-text_fields" data-name="-Round-/-Editor-/-text_fields">
          <g id="Group_809" data-name="Group 809">
            <path id="Path" d="M0,0H27.954V27.954H0Z" fill="none" fill-rule="evenodd"/>
            <path id="_-Icon-Color" data-name="🔹-Icon-Color" d="M2.5,5.747A1.745,1.745,0,0,0,4.247,7.494H8.324v12.23a1.747,1.747,0,1,0,3.494,0V7.494h4.077a1.747,1.747,0,0,0,0-3.494H4.247A1.745,1.745,0,0,0,2.5,5.747ZM22.883,9.824H15.894a1.747,1.747,0,0,0,0,3.494h1.747v6.406a1.747,1.747,0,0,0,3.494,0V13.318h1.747a1.747,1.747,0,0,0,0-3.494Z" transform="translate(0.412 0.659)" fill="#767676" fill-rule="evenodd"/>
          </g>
        </g>
      </g>
    </g>
  </g>
</svg>
